<svg width="460" height="79" viewBox="0 0 460 79" fill="none" xmlns="http://www.w3.org/2000/svg">
<path d="M0.9 1.99999H4.1C16.0333 1.99999 25.2333 5.26666 31.7 11.8C38.2333 18.2667 41.5 27.5 41.5 39.5C41.5 46.3667 39.8333 52.6667 36.5 58.4C33.1667 64.1333 28.6333 68.6667 22.9 72C17.2333 75.3333 10.9667 77 4.1 77H0.9V1.99999ZM4.9 73.9C11.0333 73.9 16.6333 72.4 21.7 69.4C26.7667 66.3333 30.7667 62.1667 33.7 56.9C36.7 51.6333 38.2 45.8333 38.2 39.5C38.2 28.4333 35.3 19.9333 29.5 14C23.7667 8 15.5667 5 4.9 5H4.1V73.9H4.9ZM117.291 77H113.791L99.5914 48.4H59.7914L45.8914 77H42.3914L79.7914 0.199999L117.291 77ZM98.3914 45.5L79.5914 7.4L61.1914 45.5H98.3914ZM205.339 1.99999V77H202.039V6.8L166.639 78.4L131.439 5.9V77H128.139V1.99999H132.839L166.639 71.6L200.739 1.99999H205.339ZM221.615 1.99999H224.915V77H221.615V1.99999ZM244.132 9.5V77H241.232V0.899996L296.432 69.4V1.99999H299.332V78.1L244.132 9.5ZM315.158 1.99999H318.458V45.5H369.858V1.99999H373.158V77H369.858V48.4H318.458V77H315.158V1.99999ZM459.186 77H455.686L441.486 48.4H401.686L387.786 77H384.286L421.686 0.199999L459.186 77ZM440.286 45.5L421.486 7.4L403.086 45.5H440.286Z" fill="black"/>
</svg>
